<svg viewBox="0 0 1440 1364" fill="none" xmlns="http://www.w3.org/2000/svg">
<path d="M89 552.5C89 593.645 58.1076 627 20 627C-18.1076 627 -49 593.645 -49 552.5C-49 511.355 -18.1076 478 20 478C58.1076 478 89 511.355 89 552.5Z" fill="white"/>
<path d="M1295 47.5C1295 88.6452 1264.11 122 1226 122C1187.89 122 1157 88.6452 1157 47.5C1157 6.35479 1187.89 -27 1226 -27C1264.11 -27 1295 6.35479 1295 47.5Z" fill="white"/>
<path d="M1509 334.5C1509 375.645 1478.11 409 1440 409C1401.89 409 1371 375.645 1371 334.5C1371 293.355 1401.89 260 1440 260C1478.11 260 1509 293.355 1509 334.5Z" fill="white"/>
<path d="M48 147.5C48 188.645 17.1076 222 -21 222C-59.1076 222 -90 188.645 -90 147.5C-90 106.355 -59.1076 73 -21 73C17.1076 73 48 106.355 48 147.5Z" fill="white"/>
<path d="M551 -53.5C551 -12.3548 520.108 21 482 21C443.892 21 413 -12.3548 413 -53.5C413 -94.6452 443.892 -128 482 -128C520.108 -128 551 -94.6452 551 -53.5Z" fill="white"/>
<path d="M1231 107C1231 129.644 1212.87 148 1190.5 148C1168.13 148 1150 129.644 1150 107C1150 84.3563 1168.13 66 1190.5 66C1212.87 66 1231 84.3563 1231 107Z" fill="white"/>
<path d="M463 -25.5C463 15.6452 432.108 49 394 49C355.892 49 325 15.6452 325 -25.5C325 -66.6452 355.892 -100 394 -100C432.108 -100 463 -66.6452 463 -25.5Z" fill="white"/>
<path d="M1476 745.5C1476 780.018 1448.24 808 1414 808C1379.76 808 1352 780.018 1352 745.5C1352 710.982 1379.76 683 1414 683C1448.24 683 1476 710.982 1476 745.5Z" fill="white"/>
<path d="M1538 1301.5C1538 1336.02 1510.24 1364 1476 1364C1441.76 1364 1414 1336.02 1414 1301.5C1414 1266.98 1441.76 1239 1476 1239C1510.24 1239 1538 1266.98 1538 1301.5Z" fill="white"/>
<path d="M31 640.5C31 675.018 3.24165 703 -31 703C-65.2417 703 -93 675.018 -93 640.5C-93 605.982 -65.2417 578 -31 578C3.24165 578 31 605.982 31 640.5Z" fill="white"/>
<path d="M34 1140.5C34 1175.02 6.24165 1203 -28 1203C-62.2417 1203 -90 1175.02 -90 1140.5C-90 1105.98 -62.2417 1078 -28 1078C6.24165 1078 34 1105.98 34 1140.5Z" fill="white"/>
</svg>
